# xmcd CD database file
#
# Track frame offsets:
#	150
#	6097
#	16843
#	27554
#	50035
#	75827
#	77394
#	97101
#	114604
#	136911
#	140076
#	152687
#	171771
#
# Disc length: 2734 seconds
#
# Revision: 1
# Processed by: cddbd v1.5.2PL0 Copyright (c) Steve Scherf et al.
# Submitted via: CDex 1.51
#
DISCID=9b0aac0d
DTITLE=The RH Factor - Distractions
DYEAR=2006
DGENRE=Jazz
TTITLE0=Distractions (intro)
TTITLE1=Crazy Love
TTITLE2=Kamsas City Funk
TTITLE3=On The One
TTITLE4=Famiry
TTITLE5=Distractions 2
TTITLE6=A Place
TTITLE7=Hold On
TTITLE8=Bull***t (feat. D'Angelo)
TTITLE9=Distractions 3
TTITLE10=Can't Stop
TTITLE11=Distractions 4
TTITLE12=The Scope
EXTD=YEAR: 2006
EXTT0=
EXTT1=
EXTT2=
EXTT3=
EXTT4=
EXTT5=
EXTT6=
EXTT7=
EXTT8=
EXTT9=
EXTT10=
EXTT11=
EXTT12=
PLAYORDER=
